<?xml version="1.0" encoding="UTF-8"?>
<svg id="Layer_1" data-name="Layer 1" xmlns="http://www.w3.org/2000/svg" viewBox="0 0 1020.47 1020.47">
  <defs>
    <style>
      .cls-1 {
        fill: #fff;
      }

      .cls-2 {
        fill: #1d2b43;
      }

      .cls-3 {
        fill: #24a48c;
      }
    </style>
  </defs>
  <circle class="cls-1" cx="510.24" cy="510.24" r="502.69"/>
  <g>
    <path class="cls-2" d="M433.63,572.03v-84.7h178.53v200.73c-25.01,20.93-53.59,37.17-84.37,47.93-35.37,12.08-72.56,17.96-109.93,17.37-50.46,0-93.75-10.3-129.88-30.89-35.38-19.83-64.22-49.53-83-85.47-33.98-69.31-38.13-149.5-11.49-221.95,11.19-28.96,28-55.41,49.47-77.83,21.49-22.33,47.4-39.95,76.07-51.72,67.25-26.13,142.14-24.39,208.1,4.84,31.11,14.87,58.07,37.19,78.49,64.97l-70.85,67.39c-13.68-16.99-30.13-31.56-48.64-43.09-20.02-11.55-42.86-17.26-65.96-16.49-25.67-.73-50.97,6.28-72.61,20.12-20.05,13.37-36.03,32.01-46.17,53.87-10.89,23.32-16.42,48.79-16.16,74.53-.64,26.97,5.7,53.65,18.41,77.45,11.51,21.23,28.62,38.89,49.47,51.06,21.59,12.22,46.05,18.45,70.85,18.03,17.14.21,34.22-2.01,50.73-6.6,15.09-4.17,29.17-11.37,41.39-21.16v-58.37h-82.45Z"/>
    <path class="cls-3" d="M844.35,681.61c0,39.65-32.14,71.78-71.78,71.78s-71.78-32.14-71.78-71.78,32.14-71.78,71.78-71.78h0c39.65,0,71.78,32.14,71.78,71.78"/>
  </g>
</svg>